{"title":"Mama Manchu Alludu Kanchu 2015 Movies DVDScr XviD AAC New ☻rDX☻","uid":13096762,"size":740367710,"categoryP":"video","categoryS":"movies","magnet":"?xt=urn:btih:da6289c8605e43492924a4f9e51a8d2c60a95cfb&amp;dn=Mama+Manchu+Alludu+Kanchu+2015+Movies+DVDScr+XviD+AAC+New+%E2%98%BBrDX%E2%98%BB&amp;tr=udp%3A%2F%2Ftracker.leechers-paradise.org%3A6969&amp;tr=udp%3A%2F%2Fzer0day.ch%3A1337&amp;tr=udp%3A%2F%2Fopen.demonii.com%3A1337&amp;tr=udp%3A%2F%2Ftracker.coppersurfer.tk%3A6969&amp;tr=udp%3A%2F%2Fexodus.desync.com%3A6969","seeders":1,"leechers":0,"uploader":"basicssom","files":2,"time":1451137532,"description":"----------------------------------------------------------------\r\nMama Manchu Alludu Kanchu 2015 Telugu Movies DVDScr XviD AAC New Source with Sample ~ ☻rDX☻\r\n\r\nSCREEN SHOTS &amp; POSTER:\r\n  \nhttp://doctorhosts.com/2015/12/mmak/11.html  \nhttp://doctorhosts.com/2015/12/mmak/1.html  \nhttp://doctorhosts.com/2015/12/mmak/2.html  \nhttp://doctorhosts.com/2015/12/mmak/3.html  \nhttp://doctorhosts.com/2015/12/mmak/4.html  \nhttp://doctorhosts.com/2015/12/mmak/5.html  \nhttp://doctorhosts.com/2015/12/mmak/6.html  \nhttp://doctorhosts.com/2015/12/mmak/7.html  \nhttp://doctorhosts.com/2015/12/mmak/8.html  \nhttp://doctorhosts.com/2015/12/mmak/9.html  \nhttp://doctorhosts.com/2015/12/mmak/10.html\r\n\r\nFormat                                   : Matroska\r\nFormat version                           : Version 4 / Version 2\r\nFile size                                : 694 MiB\r\nDuration                                 : 2h 7mn\r\nOverall bit rate                         : 759 Kbps\r\nMovie name                               : Mama Manchu Alludu Kanchu 2015 Telugu Movies DVDScr XviD AAC New Source ~ rDX ~\r\n\r\nVideo\r\nID                                       : 1\r\nFormat                                   : MPEG-4 Visual\r\nFormat profile                           : Advanced   \r\nFormat settings, BVOP                    : Yes\r\nFormat settings, QPel                    : No\r\nFormat settings, GMC                     : No warppoints\r\nFormat settings, Matrix                  : Default (H.263)\r\nCodec ID                                 : V_MS/VFW/FOURCC / XVID\r\nCodec ID/Hint                            : XviD\r\nDuration                                 : 2h 7mn\r\nBit rate                                 : 680 Kbps\r\nWidth                                    : 640 pixels\r\nHeight                                   : 272 pixels\r\nDisplay aspect ratio                     : 2.35:1\r\nFrame rate mode                          : Constant\r\nFrame rate                               : 23.976 fps\r\nColor space                              : YUV\r\nChroma subsampling                       : 4:2:0\r\nBit depth                                : 8 bits\r\nScan type                                : Progressive\r\nCompression mode                         : Lossy\r\nBits/(Pixel*Frame)                       : 0.163\r\nStream size                              : 622 MiB (90%)\r\nTitle                                    : ~ rDX ~\r\nWriting library                          : XviD 67\r\nDefault                                  : Yes\r\nForced                                   : No\r\n\r\nAudio\r\nID                                       : 2\r\nFormat                                   : MPEG Audio\r\nFormat version                           : Version 2\r\nFormat profile                           : Layer 3\r\nMode                                     : Joint stereo\r\nMode extension                           : MS Stereo\r\nCodec ID                                 : A_MPEG/L3\r\nCodec ID/Hint                            : MP3\r\nDuration                                 : 2h 7mn\r\nBit rate mode                            : Constant\r\nBit rate                                 : 64.0 Kbps\r\nChannel(s)                               : 2 channels\r\nSampling rate                            : 24.0 KHz\r\nCompression mode                         : Lossy\r\nStream size                              : 58.5 MiB (8%)\r\nTitle                                    : ~ rDX ~\r\nWriting library                          : LAME3.99r\r\nEncoding settings                        : -m j -V 4 -q 2 -lowpass 11 -b 64\r\nDefault                                  : Yes\r\nForced                                   : No\r\n\r\nIMDB                                     \r\nna","torrent":{"xt":"urn:btih:da6289c8605e43492924a4f9e51a8d2c60a95cfb","amp;dn":"Mama+Manchu+Alludu+Kanchu+2015+Movies+DVDScr+XviD+AAC+New+%E2%98%BBrDX%E2%98%BB","amp;tr":["udp%3A%2F%2Ftracker.leechers-paradise.org%3A6969","udp%3A%2F%2Fzer0day.ch%3A1337","udp%3A%2F%2Fopen.demonii.com%3A1337","udp%3A%2F%2Ftracker.coppersurfer.tk%3A6969","udp%3A%2F%2Fexodus.desync.com%3A6969"],"infoHash":"da6289c8605e43492924a4f9e51a8d2c60a95cfb","infoHashBuffer":{"type":"Buffer","data":[218,98,137,200,96,94,67,73,41,36,164,249,229,26,141,44,96,169,92,251]},"announce":[],"urlList":[]}}